<?xml version="1.0" standalone="no"?>
<!DOCTYPE svg PUBLIC "-//W3C//DTD SVG 20010904//EN"
 "http://www.w3.org/TR/2001/REC-SVG-20010904/DTD/svg10.dtd">
<svg version="1.0" xmlns="http://www.w3.org/2000/svg"
 width="734.000000pt" height="734.000000pt" viewBox="0 0 734.000000 734.000000"
 preserveAspectRatio="xMidYMid meet">
<metadata>
Created by potrace 1.14, written by Peter Selinger 2001-2017
</metadata>
<g transform="translate(0.000000,734.000000) scale(0.100000,-0.100000)"
fill="#000000" stroke="none">
<path d="M5401 6777 c-13 -23 -37 -67 -53 -97 -16 -30 -41 -77 -57 -105 -30
-56 -97 -178 -146 -270 l-33 -60 -156 -3 -156 -3 0 128 c0 71 -3 199 -7 285
l-6 157 -2130 -4 c-1172 -3 -2131 -6 -2132 -7 -3 -6 -68 -246 -125 -463 -11
-44 -34 -127 -50 -185 -17 -58 -37 -134 -46 -170 -10 -36 -27 -103 -39 -150
-17 -66 -19 -89 -11 -102 7 -9 72 -69 145 -132 l133 -116 184 0 c101 0 184 -3
184 -7 0 -4 -13 -50 -29 -103 -16 -52 -35 -122 -44 -155 -14 -59 -54 -207
-121 -455 -18 -69 -39 -147 -46 -175 -12 -46 -32 -120 -106 -385 -14 -52 -31
-115 -36 -140 -5 -25 -22 -88 -38 -140 -24 -82 -49 -176 -67 -256 -5 -22 37
-60 141 -130 17 -12 37 -29 45 -38 7 -9 19 -16 25 -16 7 0 23 -11 36 -25 23
-25 26 -25 177 -25 l153 0 14 -32 c18 -43 91 -113 136 -131 19 -8 58 -18 85
-22 83 -12 101 -43 69 -121 -33 -79 -14 -177 48 -241 43 -45 88 -58 193 -57
97 1 452 59 588 96 42 12 80 18 83 15 3 -3 -6 -88 -20 -189 -14 -101 -33 -253
-41 -338 -9 -85 -22 -197 -31 -249 -12 -78 -12 -103 -2 -150 8 -37 11 -103 8
-196 -3 -77 -5 -210 -4 -296 0 -149 2 -159 27 -211 15 -30 27 -61 27 -69 1
-50 76 -155 131 -184 23 -12 27 -24 38 -102 16 -109 32 -147 79 -197 95 -100
236 -104 333 -10 l35 34 16 -33 c8 -18 34 -48 57 -67 23 -19 68 -58 100 -86
32 -29 71 -55 87 -58 191 -39 258 -24 348 76 26 29 50 56 54 60 29 31 75 57
120 67 96 20 159 65 197 141 20 39 64 246 65 303 l0 37 179 -150 c99 -83 210
-184 247 -225 76 -86 165 -152 274 -204 70 -33 82 -36 170 -36 115 0 158 14
203 64 23 26 47 41 72 45 47 9 120 75 136 124 7 20 12 70 12 110 0 62 -5 82
-36 145 -23 46 -56 91 -93 127 -61 59 -109 126 -167 233 -20 37 -67 109 -103
160 -37 50 -71 108 -77 127 -5 20 -36 63 -76 105 -37 38 -84 90 -105 114 l-38
43 38 18 c91 40 184 113 310 241 248 255 270 288 328 488 43 149 52 239 36
346 -16 105 -51 171 -149 282 l-80 92 108 25 c59 14 195 41 302 61 207 38 426
90 549 130 41 13 116 32 165 41 50 9 133 27 185 39 52 13 219 51 370 85 151
33 299 67 328 76 156 44 206 218 94 327 -47 46 -84 61 -205 82 -93 17 -103 17
-213 0 -63 -9 -116 -16 -117 -14 -1 2 -12 16 -25 30 l-22 26 149 559 c168 632
212 794 251 944 40 152 207 754 256 923 5 16 -39 17 -828 17 l-833 0 -24 -43z
m-661 -7 c0 -6 -90 -9 -252 -8 -139 0 -233 4 -208 8 73 11 460 11 460 0z
m2285 0 c-4 -7 -277 -10 -786 -10 -513 0 -779 3 -779 10 0 7 269 10 786 10
521 0 783 -3 779 -10z m-2340 -50 c-4 -7 -677 -9 -2053 -8 -1397 2 -1780 4
-1207 8 1736 10 3267 11 3260 0z m1655 0 c458 0 610 -3 596 -12 -14 -8 -85 -9
-240 -5 -122 4 -443 7 -713 7 -361 0 -493 3 -493 11 0 9 33 10 118 6 64 -4
394 -7 732 -7z m-3146 -42 c-12 -5 -27 -21 -34 -34 -17 -30 -33 -21 -18 11 10
23 26 32 58 33 9 0 6 -4 -6 -10z m99 -12 l22 -24 638 -5 c350 -2 639 -6 642
-9 13 -13 4 -1539 -11 -1745 -2 -40 -1 -73 3 -73 8 1 36 58 48 100 4 14 21 51
38 83 16 32 27 60 24 63 -3 3 -13 -10 -22 -30 -10 -20 -21 -36 -26 -36 -5 0
-9 -10 -9 -22 0 -12 -3 -19 -6 -15 -9 9 16 144 41 218 12 36 48 113 79 170 88
159 116 208 154 279 19 36 48 88 63 115 15 28 39 70 52 95 13 25 44 80 68 124
47 84 70 125 139 251 24 44 53 97 64 117 71 125 164 294 181 329 23 45 43 47
63 6 l13 -27 641 0 c511 0 639 -3 631 -12 -23 -31 -98 -264 -109 -338 -4 -25
-12 -58 -19 -75 -7 -16 -23 -75 -35 -130 -21 -97 -49 -203 -91 -350 -19 -65
-35 -130 -87 -345 -12 -47 -31 -119 -42 -160 -12 -41 -33 -122 -47 -180 -26
-110 -64 -254 -112 -430 -16 -58 -31 -117 -35 -132 -6 -26 -10 -28 -54 -27
-112 4 -411 -32 -597 -71 -101 -21 -185 -34 -185 -29 0 4 4 19 29 99 6 17 6
28 1 25 -4 -3 -13 7 -18 22 -7 19 -11 22 -11 10 -2 -35 -43 -159 -55 -162 -54
-16 -66 -15 -66 6 0 11 14 69 31 128 17 58 32 125 33 147 0 23 4 40 7 38 9 -5
22 46 14 54 -3 3 -5 -3 -5 -13 0 -10 -3 -16 -6 -12 -9 8 6 48 16 42 4 -3 6 5
2 17 -4 16 -2 19 8 13 9 -5 11 -4 6 3 -4 7 0 35 8 64 8 29 28 103 45 163 17
61 36 132 41 159 6 26 17 61 26 78 8 16 26 60 38 96 23 65 68 176 105 257 10
22 24 57 30 77 7 21 17 40 22 44 10 6 6 -17 -17 -96 -29 -96 -12 -69 22 35 56
172 74 231 74 241 0 14 -133 -216 -170 -296 -12 -25 -27 -52 -35 -60 -7 -8
-24 -35 -37 -60 -14 -25 -30 -44 -36 -43 -6 2 -9 -3 -6 -10 2 -7 -4 -22 -14
-33 -10 -10 -17 -25 -14 -32 2 -7 -2 -11 -9 -10 -7 2 -13 -3 -14 -10 0 -7 -6
-16 -13 -21 -7 -4 -14 -20 -16 -35 -2 -16 -7 -31 -13 -34 -5 -4 -16 -18 -23
-32 -13 -24 -12 -24 6 -10 18 14 19 14 1 -7 -10 -11 -32 -48 -50 -81 -18 -34
-52 -94 -76 -134 -24 -40 -60 -101 -80 -135 -20 -33 -40 -59 -45 -56 -5 4 -6
1 -2 -6 5 -7 -3 -29 -18 -51 -14 -22 -26 -42 -26 -45 0 -3 -18 -34 -40 -67
-22 -34 -40 -66 -40 -71 0 -4 -4 -5 -10 -2 -5 3 -7 0 -5 -7 3 -8 -6 -29 -20
-48 -14 -19 -25 -38 -25 -43 0 -5 -17 -36 -37 -67 -21 -32 -49 -77 -62 -99
-23 -37 -48 -58 -58 -47 -3 3 2 15 11 28 9 12 16 27 16 33 0 5 -12 -7 -27 -28
-35 -50 -69 -58 -403 -98 -314 -37 -361 -41 -368 -34 -4 4 -5 102 -4 218 4
239 -6 493 -19 462 -5 -13 -7 -2 -7 35 1 51 1 52 9 20 8 -34 4 268 -5 340 -2
19 -7 152 -11 295 -7 252 -15 322 -30 263 -4 -15 -3 -47 3 -72 5 -25 10 -94
11 -153 1 -60 6 -216 12 -349 6 -132 9 -249 7 -260 -2 -10 -9 69 -15 176 -9
173 -10 142 -6 -270 2 -256 6 -522 8 -591 l6 -127 -28 -5 c-15 -3 -30 -3 -32
-1 -5 5 -19 210 -30 459 -12 254 -11 238 -12 515 0 239 21 474 58 665 8 44 16
99 17 123 0 26 6 42 14 42 6 0 12 5 12 10 0 6 -11 10 -24 10 -13 0 -26 3 -29
8 -2 4 -1 0 2 -8 14 -40 -12 -198 -28 -171 -8 12 -51 -130 -51 -165 0 -11 -13
-53 -30 -94 -16 -41 -29 -84 -30 -94 0 -10 -15 -69 -34 -130 -18 -61 -41 -139
-50 -173 -9 -35 -23 -91 -32 -125 -9 -35 -31 -115 -50 -178 -18 -63 -35 -131
-38 -150 -5 -29 -3 -27 13 15 11 28 19 43 19 35 0 -19 -36 -119 -38 -105 -2
14 -19 -26 -19 -45 0 -9 4 -8 9 5 19 45 8 -14 -21 -109 -17 -55 -47 -153 -66
-216 -19 -63 -41 -133 -47 -155 l-13 -40 -187 -22 c-104 -12 -234 -31 -290
-44 -55 -12 -141 -25 -191 -30 -49 -4 -107 -11 -127 -15 -28 -4 -38 -3 -38 7
0 9 -4 8 -12 -3 -7 -8 -28 -18 -47 -22 -31 -6 -33 -4 -26 17 3 12 15 56 26 97
11 41 35 129 55 195 19 66 34 127 34 135 0 8 10 42 21 75 11 33 26 90 34 128
8 37 26 102 39 145 13 42 31 106 40 142 30 126 84 325 95 354 6 16 16 49 21
75 6 25 24 98 41 161 49 181 95 348 119 435 12 44 27 100 31 125 5 25 22 90
38 145 36 125 89 320 97 360 5 25 22 83 49 173 6 17 13 15 38 -12z m-254 -73
c-11 -38 -33 -120 -49 -183 -17 -63 -39 -140 -50 -170 -10 -30 -22 -72 -26
-93 -10 -56 -53 -185 -54 -161 0 12 11 57 25 100 14 43 25 88 24 99 0 25 -35
-59 -44 -109 -4 -20 -12 -33 -17 -30 -6 4 -8 -2 -3 -15 10 -32 -19 -55 -69
-54 -36 2 -38 1 -16 -7 21 -8 20 -9 -10 -4 -33 5 -70 7 -183 12 -27 1 -46 6
-42 11 3 6 -83 10 -220 11 -124 0 -225 -3 -225 -8 0 -4 9 -18 20 -30 20 -21
29 -22 238 -24 l217 -2 -208 -6 -209 -5 -24 -75 c-14 -41 -30 -102 -38 -135
-7 -33 -28 -109 -46 -170 -18 -60 -43 -148 -56 -195 -13 -47 -37 -134 -55
-195 -17 -60 -38 -137 -45 -170 -8 -33 -24 -85 -34 -116 -11 -30 -20 -64 -21
-75 0 -16 -2 -15 -10 5 -5 14 -6 28 0 35 16 20 43 116 37 132 -4 10 -2 13 6 8
8 -5 9 2 4 22 -5 22 -4 25 4 14 9 -12 10 -10 8 10 -1 14 2 31 6 39 5 8 9 35 9
60 0 25 3 37 7 27 4 -12 13 6 28 56 13 41 20 82 16 92 -4 10 -3 21 3 25 5 3
21 45 36 92 21 65 25 92 18 110 -5 13 -10 19 -10 12 -1 -6 -4 -20 -7 -30 -5
-15 -4 -15 5 -3 9 13 11 13 10 0 0 -8 -4 -24 -9 -35 l-9 -20 -1 20 -1 20 -9
-20 c-5 -11 -7 -36 -4 -55 2 -19 1 -29 -2 -22 -10 23 -166 -482 -255 -828 -11
-41 -32 -118 -48 -170 -16 -52 -34 -121 -41 -153 -6 -32 -14 -56 -17 -53 -6 5
2 41 49 236 17 69 36 154 43 190 6 36 22 101 34 144 12 44 21 95 19 115 -3 34
-5 32 -29 -39 -37 -103 -87 -276 -95 -325 -3 -22 -16 -83 -29 -135 -13 -52
-28 -133 -35 -180 -6 -47 -13 -97 -15 -111 -4 -22 -15 -62 -41 -138 -4 -11 -7
-12 -16 -3 -18 18 -683 17 -705 0 -8 -7 -29 -26 -46 -43 l-30 -30 84 -5 c46
-3 237 -5 423 -4 l339 1 13 49 c7 27 13 60 14 73 0 13 11 58 25 100 13 42 38
119 54 171 16 52 30 86 30 75 1 -11 -10 -56 -24 -100 -24 -76 -49 -173 -60
-233 -3 -15 -13 -54 -24 -87 l-19 -60 -454 -5 c-369 -4 -458 -8 -472 -19 -26
-21 -27 -10 -6 60 25 86 78 284 88 334 5 22 21 81 35 130 26 90 53 193 83 315
9 36 27 99 40 140 13 41 32 111 43 155 22 90 83 311 101 365 6 19 17 64 25
100 7 36 25 108 39 160 15 52 38 140 53 195 14 55 32 112 40 127 l13 28 -337
3 -338 2 349 3 348 2 -5 -22 c-3 -13 -12 -52 -20 -88 -9 -36 -31 -119 -51
-185 -19 -66 -48 -169 -65 -230 -16 -60 -45 -166 -64 -235 -34 -125 -53 -196
-84 -320 -9 -36 -31 -119 -48 -185 -18 -66 -38 -140 -44 -165 -6 -25 -20 -83
-32 -130 -11 -47 -33 -132 -49 -190 -16 -58 -33 -132 -39 -165 -6 -33 -15 -76
-21 -94 -6 -21 -6 -31 0 -25 5 5 16 39 23 76 8 36 26 87 41 113 14 26 26 52
26 57 0 5 11 33 24 61 13 29 31 88 41 131 9 44 24 98 32 120 7 23 23 82 34
131 10 50 28 115 39 145 11 30 20 62 20 70 0 8 16 69 35 135 20 66 50 165 66
220 16 55 45 150 64 210 48 151 74 246 95 340 9 44 29 124 44 178 14 55 26
104 26 110 0 22 -18 -9 -35 -60 -19 -59 -35 -77 -35 -39 0 14 -5 28 -10 31 -6
4 -8 10 -5 14 2 5 -10 12 -28 16 l-32 8 30 7 c29 7 29 8 -10 10 -33 1 -36 3
-20 11 12 5 -53 6 -170 3 -104 -4 -192 -10 -195 -14 -3 -4 -67 -13 -144 -20
-113 -10 -140 -10 -146 1 -6 8 -9 3 -12 -16 -3 -32 -28 -47 -28 -17 0 10 13
64 29 118 27 91 51 183 88 339 8 33 29 106 46 163 l31 102 1207 0 1206 0 -18
-67z m2351 33 c0 -2 -8 -10 -17 -17 -16 -13 -17 -12 -4 4 13 16 21 21 21 13z
m1558 -104 c-12 -40 -24 -70 -26 -68 -2 3 6 36 19 75 12 39 24 70 26 68 2 -3
-6 -36 -19 -75z m-1608 20 c0 -5 -7 -17 -15 -28 -14 -18 -14 -17 -4 9 12 27
19 34 19 19z m1560 -189 c-11 -17 -11 -17 -6 0 3 10 7 26 7 35 1 15 2 15 6 0
2 -10 -1 -25 -7 -35z m-2169 -215 c-10 -31 -11 -29 -6 16 3 27 6 65 7 85 1 26
3 21 5 -16 2 -28 -1 -66 -6 -85z m389 -18 c-6 -12 -14 -19 -17 -17 -2 3 1 15
7 27 6 12 14 19 17 17 2 -3 -1 -15 -7 -27z m1714 -4 c-3 -15 -8 -25 -11 -23
-2 3 -1 17 3 31 3 15 8 25 11 23 2 -3 1 -17 -3 -31z m-1753 -69 c-10 -9 -11
-8 -5 6 3 10 9 15 12 12 3 -3 0 -11 -7 -18z m-2663 -64 c-10 -2 -26 -2 -35 0
-10 3 -2 5 17 5 19 0 27 -2 18 -5z m424 -15 c-7 -7 -12 -8 -12 -2 0 14 12 26
19 19 2 -3 -1 -11 -7 -17z m-1814 5 c-10 -2 -26 -2 -35 0 -10 3 -2 5 17 5 19
0 27 -2 18 -5z m55 -10 c-7 -2 -19 -2 -25 0 -7 3 -2 5 12 5 14 0 19 -2 13 -5z
m3913 -70 c-14 -20 -26 -34 -26 -28 0 11 43 75 48 70 2 -2 -8 -21 -22 -42z
m-65 -119 c-17 -26 -31 -44 -31 -40 0 13 52 97 57 92 3 -3 -9 -26 -26 -52z
m-204 -291 c-1 -54 -3 -12 -3 92 0 105 2 149 3 98 2 -51 2 -136 0 -190z m148
188 c-8 -17 -19 -33 -25 -36 -5 -3 -1 10 11 29 25 43 36 48 14 7z m-2908 -243
c-3 -8 -6 -5 -6 6 -1 11 2 17 5 13 3 -3 4 -12 1 -19z m4640 -140 c-3 -8 -6 -5
-6 6 -1 11 2 17 5 13 3 -3 4 -12 1 -19z m-4680 -20 c-3 -8 -6 -5 -6 6 -1 11 2
17 5 13 3 -3 4 -12 1 -19z m4660 -50 c-3 -7 -5 -2 -5 12 0 14 2 19 5 13 2 -7
2 -19 0 -25z m-20 -70 c-3 -7 -5 -2 -5 12 0 14 2 19 5 13 2 -7 2 -19 0 -25z
m-1147 -64 c-11 -25 -18 -50 -14 -55 3 -5 0 -9 -7 -9 -7 0 -9 -3 -6 -7 4 -3
-2 -12 -13 -20 -11 -8 -20 -22 -20 -31 -1 -9 -12 -35 -25 -57 -13 -22 -47 -85
-74 -140 -45 -89 -77 -149 -172 -320 -15 -27 -41 -76 -58 -107 -17 -31 -39
-59 -48 -61 -10 -3 -29 -9 -43 -13 -24 -6 -24 -6 -9 12 9 11 29 42 43 69 14
28 30 57 36 65 5 8 15 27 22 42 7 15 34 62 59 105 26 43 57 96 69 118 12 22
31 51 41 64 11 13 19 28 19 33 0 5 15 32 33 61 18 29 36 59 40 67 4 8 28 47
52 85 24 39 54 87 65 108 28 51 33 47 10 -9z m1127 -11 c-3 -10 -5 -4 -5 12 0
17 2 24 5 18 2 -7 2 -21 0 -30z m-15 -50 c-3 -16 -7 -22 -10 -15 -4 13 4 42
11 42 2 0 2 -12 -1 -27z m-2725 -15 c-3 -8 -6 -5 -6 6 -1 11 2 17 5 13 3 -3 4
-12 1 -19z m-41 -202 c-85 -361 -97 -417 -91 -435 3 -12 -1 -31 -10 -44 -9
-14 -15 -29 -14 -33 1 -5 -1 -16 -4 -24 -14 -34 -57 -182 -57 -194 0 -8 -7
-17 -16 -20 -17 -7 -64 -8 -64 -2 0 12 52 201 59 215 5 9 14 41 21 71 6 30 24
93 39 140 16 47 42 130 59 185 27 88 57 182 95 295 9 26 13 30 15 16 2 -11
-12 -87 -32 -170z m-1060 38 c-8 -27 -15 -43 -15 -35 -1 18 21 92 26 87 2 -2
-2 -26 -11 -52z m3780 -30 c-4 -14 -9 -24 -12 -21 -3 2 -2 17 2 31 3 15 9 25
11 22 3 -3 2 -17 -1 -32z m-4706 -161 c-17 -54 -36 -107 -41 -118 -5 -11 -21
-58 -34 -105 -18 -60 -23 -72 -19 -40 6 46 35 140 60 198 9 18 12 43 9 55 -5
18 -4 19 5 7 9 -12 10 -7 5 20 -5 27 -4 31 5 20 9 -12 10 -10 9 10 -1 14 -1
34 0 45 1 17 3 18 12 5 8 -11 9 -8 5 15 -5 27 -4 28 5 8 9 -17 5 -41 -21 -120z
m94 100 c-3 -21 -15 -74 -26 -118 -17 -69 -31 -137 -43 -210 -2 -11 -4 -20 -5
-20 -1 0 -3 -11 -6 -25 -2 -14 -13 -52 -23 -85 -11 -33 -22 -73 -25 -90 -9
-44 -64 -247 -93 -343 -19 -65 -28 -82 -41 -80 -9 2 -16 7 -15 11 1 4 7 33 13
65 6 31 24 98 40 147 16 50 33 110 38 135 10 49 43 168 96 350 19 63 40 138
47 165 6 28 15 55 19 60 4 6 11 25 15 43 9 45 17 40 9 -5z m1766 -10 c-11 -17
-11 -17 -6 0 3 10 6 24 7 30 0 9 2 9 5 0 3 -7 0 -20 -6 -30z m2827 5 c-3 -7
-5 -2 -5 12 0 14 2 19 5 13 2 -7 2 -19 0 -25z m-3790 -30 c-3 -8 -6 -5 -6 6
-1 11 2 17 5 13 3 -3 4 -12 1 -19z m3763 -55 c-11 -17 -11 -17 -6 0 3 10 7 26
7 35 1 15 2 15 6 0 2 -10 -1 -25 -7 -35z m-3780 0 c-11 -17 -11 -17 -6 0 3 10
6 24 7 30 0 9 2 9 5 0 3 -7 0 -20 -6 -30z m1217 -130 c-2 -27 -3 -5 -3 47 0
52 1 74 3 48 2 -27 2 -69 0 -95z m120 95 c-3 -7 -5 -2 -5 12 0 14 2 19 5 13 2
-7 2 -19 0 -25z m1333 -63 c-12 -36 -24 -64 -27 -62 -2 3 6 34 19 70 12 36 24
64 26 62 2 -2 -6 -34 -18 -70z m1097 43 c-3 -7 -5 -2 -5 12 0 14 2 19 5 13 2
-7 2 -19 0 -25z m-2430 -50 c-3 -8 -6 -5 -6 6 -1 11 2 17 5 13 3 -3 4 -12 1
-19z m2410 -25 c-3 -10 -5 -4 -5 12 0 17 2 24 5 18 2 -7 2 -21 0 -30z m-20
-65 c-3 -7 -5 -2 -5 12 0 14 2 19 5 13 2 -7 2 -19 0 -25z m-981 -75 c-18 -59
-21 -32 -3 34 6 25 13 39 15 31 2 -9 -4 -38 -12 -65z m-1829 35 c-3 -8 -6 -5
-6 6 -1 11 2 17 5 13 3 -3 4 -12 1 -19z m-19 -66 c-6 -24 -13 -41 -15 -38 -2
2 1 23 7 46 6 23 13 40 15 38 2 -2 -1 -23 -7 -46z m1383 -9 c-15 -28 -40 -59
-41 -50 0 8 41 67 47 67 2 0 -1 -8 -6 -17z m-1404 -65 c-3 -8 -6 -5 -6 6 -1
11 2 17 5 13 3 -3 4 -12 1 -19z m-37 -143 c-18 -53 -34 -94 -37 -91 -3 3 9 52
28 110 19 57 35 98 37 91 2 -7 -11 -56 -28 -110z m2775 83 c14 -13 -8 -24 -77
-38 -34 -6 -56 -15 -52 -21 3 -6 3 -21 0 -35 -5 -19 -21 -32 -62 -50 -51 -22
-75 -47 -60 -61 8 -8 152 14 223 33 28 8 62 12 75 9 13 -4 63 5 113 20 73 21
244 55 278 55 5 0 7 -10 5 -22 -3 -20 -25 -27 -278 -85 -151 -34 -331 -74
-400 -88 -69 -15 -186 -44 -260 -65 -179 -51 -358 -93 -505 -119 -66 -12 -255
-50 -420 -86 -355 -77 -786 -162 -906 -180 -132 -20 -180 -31 -529 -120 -179
-45 -350 -88 -380 -95 -74 -17 -98 -33 -108 -77 -13 -50 -67 -474 -87 -678 -9
-88 -21 -180 -26 -205 -22 -95 -48 -281 -59 -410 -16 -187 -50 -411 -66 -437
-8 -12 -14 -42 -14 -65 0 -24 -12 -88 -26 -143 -18 -70 -28 -141 -32 -235 -6
-108 -10 -135 -22 -137 -35 -6 -44 14 -51 119 -4 57 -15 128 -23 158 -9 30
-16 69 -16 86 0 18 -8 42 -19 55 l-18 23 -16 -30 c-8 -16 -24 -38 -36 -48 -34
-31 -51 -7 -51 70 0 35 -4 64 -9 64 -5 0 -16 6 -23 14 -11 11 -14 50 -11 187
1 96 7 210 13 254 5 44 18 155 27 247 16 160 16 168 -1 187 -17 18 -17 29 -6
148 6 70 25 221 41 335 16 114 32 245 35 290 3 46 7 98 9 117 l4 34 -68 -6
c-38 -3 -157 -29 -265 -57 -108 -28 -224 -55 -258 -60 -35 -5 -110 -16 -168
-26 l-105 -17 -38 35 c-20 19 -37 39 -37 44 0 11 45 47 73 57 27 10 20 45 -17
89 -19 22 -36 52 -38 67 -3 23 -9 27 -47 32 -35 5 -50 13 -78 47 -34 41 -36
42 -99 42 -64 0 -104 12 -104 30 0 13 55 28 145 40 44 6 112 17 150 25 39 8
138 21 220 29 83 8 200 25 260 36 139 26 811 132 1010 159 83 11 434 61 780
110 347 49 662 92 700 96 85 7 319 48 474 81 63 14 196 38 298 55 101 16 214
36 251 45 190 44 472 85 542 79 30 -3 87 -1 125 3 72 9 102 7 120 -10z m-4561
-320 c-28 -108 -48 -152 -33 -74 13 68 52 201 57 188 2 -6 -9 -57 -24 -114z
m2831 -528 c38 -10 71 -23 73 -29 2 -6 18 -11 35 -11 79 0 174 -83 237 -206
19 -38 41 -73 48 -77 13 -9 10 -53 -10 -137 -47 -202 -90 -274 -277 -461 -42
-42 -90 -92 -107 -111 -33 -36 -163 -128 -183 -128 -12 0 -83 -32 -91 -41 -16
-19 -147 -89 -167 -89 -17 0 -23 -6 -23 -21 0 -35 29 -72 91 -117 33 -23 63
-50 66 -60 10 -26 37 -60 114 -138 77 -79 77 -79 -4 -113 -26 -11 -47 -22 -47
-24 0 -2 27 -1 60 1 l60 4 50 -53 c27 -29 50 -56 50 -60 0 -4 6 -14 13 -21 7
-7 37 -53 67 -103 88 -148 135 -215 213 -308 77 -91 95 -124 72 -133 -23 -9
-90 42 -161 123 -80 90 -194 203 -206 203 -4 0 -8 -9 -8 -20 0 -21 -24 -28
-35 -10 -14 22 -25 8 -25 -32 0 -40 5 -47 75 -114 41 -39 75 -75 75 -80 0 -6
20 -30 45 -54 42 -42 75 -94 75 -120 0 -14 -75 -6 -95 9 -5 5 -37 23 -69 41
-40 21 -90 63 -149 126 -49 52 -157 150 -240 220 -242 200 -325 273 -429 376
-85 85 -157 138 -186 138 -11 0 -34 -165 -39 -282 -4 -90 -2 -100 22 -145 15
-26 34 -56 43 -67 22 -24 20 -149 -3 -229 l-17 -59 -41 3 c-69 3 -76 1 -125
-45 -26 -24 -57 -47 -70 -51 -31 -9 -93 -65 -86 -76 3 -6 -2 -22 -12 -36 -15
-24 -18 -25 -29 -10 -9 13 -18 15 -42 8 -50 -15 -67 17 -39 72 15 26 14 27
-14 27 -23 0 -31 5 -36 25 -7 26 -20 33 -26 13 -9 -27 -26 5 -21 41 4 31 1 43
-16 60 -33 33 -29 129 10 245 21 61 34 125 40 196 5 58 13 121 18 140 5 19 18
97 27 173 19 146 16 168 -22 176 -21 4 -44 20 -44 31 0 4 30 22 66 40 41 20
68 40 74 55 11 30 25 285 17 317 -4 14 -21 33 -42 44 -19 10 -35 22 -35 26 0
5 -9 8 -20 8 -32 0 -24 29 30 110 47 70 49 75 30 82 -24 9 -26 41 -5 82 20 38
19 46 -7 46 -16 0 -28 11 -38 33 -9 19 -25 34 -40 37 -14 3 -26 14 -28 24 -6
27 17 64 42 70 12 3 39 21 61 39 22 19 83 60 135 93 52 32 102 66 110 75 8 9
38 28 65 42 28 14 82 46 120 72 69 46 71 47 134 42 43 -3 72 -1 85 8 12 7 44
16 71 20 28 4 55 10 60 15 15 12 241 32 283 26 36 -6 187 16 199 28 12 11 78
5 148 -14z"/>
<path d="M3216 6304 c-4 -14 -5 -28 -3 -31 3 -2 8 8 11 23 4 14 5 28 3 31 -3
2 -8 -8 -11 -23z"/>
<path d="M3171 6136 c-13 -41 -21 -82 -19 -93 2 -10 14 21 27 70 29 107 23
125 -8 23z"/>
<path d="M3112 5913 c-17 -60 -34 -123 -38 -141 -3 -18 -17 -68 -30 -110 -14
-42 -27 -90 -29 -107 -2 -16 -18 -75 -35 -130 -17 -55 -33 -113 -35 -129 -2
-16 -15 -68 -28 -115 -66 -228 -91 -321 -102 -372 -13 -60 -34 -136 -86 -319
-17 -63 -40 -149 -49 -190 -27 -119 -60 -252 -72 -288 -5 -19 -8 -35 -6 -38 9
-8 58 102 63 141 3 22 8 58 10 79 3 21 8 43 11 48 3 5 7 25 9 44 2 20 9 41 16
48 9 8 10 8 5 -4 -4 -8 -1 -7 7 3 9 10 18 42 22 70 4 29 15 75 25 102 9 28 22
68 28 90 30 109 55 193 64 218 6 15 12 47 15 70 6 66 6 67 15 67 5 0 5 12 2
26 -5 18 -3 25 4 20 6 -3 8 1 6 11 -3 10 7 56 21 102 14 47 25 93 25 103 0 10
6 29 14 41 14 21 25 65 83 317 14 63 41 173 60 244 56 217 60 286 5 99z"/>
<path d="M4033 5600 c0 -25 2 -35 4 -22 2 12 2 32 0 45 -2 12 -4 2 -4 -23z"/>
<path d="M3962 5413 c-1 -50 1 -94 6 -96 4 -3 6 25 4 61 -5 116 -9 130 -10 35z"/>
<path d="M5661 5464 c0 -11 3 -14 6 -6 3 7 2 16 -1 19 -3 4 -6 -2 -5 -13z"/>
<path d="M2961 5144 c0 -11 3 -14 6 -6 3 7 2 16 -1 19 -3 4 -6 -2 -5 -13z"/>
<path d="M5178 4982 c-9 -15 -16 -40 -16 -56 l1 -29 23 39 c27 44 27 44 16 61
-6 9 -13 4 -24 -15z"/>
<path d="M5531 4954 c0 -11 3 -14 6 -6 3 7 2 16 -1 19 -3 4 -6 -2 -5 -13z"/>
<path d="M5501 4859 c-7 -22 -11 -43 -8 -45 2 -2 9 14 16 37 7 22 11 43 8 45
-2 2 -9 -14 -16 -37z"/>
<path d="M5121 4834 c-12 -20 -20 -39 -17 -41 2 -3 14 13 26 36 25 51 20 54
-9 5z"/>
<path d="M5063 4727 c-30 -46 -47 -80 -35 -73 11 7 64 97 59 102 -1 1 -12 -12
-24 -29z"/>
<path d="M5446 4644 c-16 -52 -27 -97 -24 -99 2 -3 17 38 32 91 15 53 26 97
24 99 -2 3 -17 -38 -32 -91z"/>
<path d="M5050 4640 c-6 -11 -8 -20 -6 -20 3 0 10 9 16 20 6 11 8 20 6 20 -3
0 -10 -9 -16 -20z"/>
<path d="M5462 4613 c-7 -25 -11 -47 -9 -50 2 -2 10 17 17 42 7 25 11 48 8 50
-2 2 -10 -16 -16 -42z"/>
<path d="M4993 4603 c-13 -19 -23 -39 -23 -44 0 -6 -13 -30 -30 -54 -16 -24
-35 -56 -40 -72 l-10 -28 19 25 c11 14 28 41 38 60 10 19 31 56 46 83 33 58
32 80 0 30z"/>
<path d="M3911 4564 c0 -11 3 -14 6 -6 3 7 2 16 -1 19 -3 4 -6 -2 -5 -13z"/>
<path d="M5436 4535 c-3 -9 -6 -24 -5 -33 0 -9 5 -4 10 12 9 32 6 48 -5 21z"/>
<path d="M3552 4528 c-7 -7 -12 -23 -12 -37 0 -30 8 -23 20 18 10 35 9 36 -8
19z"/>
<path d="M3912 4505 c0 -16 2 -22 5 -12 2 9 2 23 0 30 -3 6 -5 -1 -5 -18z"/>
<path d="M3911 4454 c0 -11 3 -14 6 -6 3 7 2 16 -1 19 -3 4 -6 -2 -5 -13z"/>
<path d="M3911 4404 c0 -11 3 -14 6 -6 3 7 2 16 -1 19 -3 4 -6 -2 -5 -13z"/>
<path d="M4873 4388 c-14 -17 -45 -78 -40 -78 8 0 60 81 55 85 -3 3 -10 0 -15
-7z"/>
<path d="M3475 4340 c-4 -17 -5 -34 -2 -36 2 -3 7 10 11 27 8 42 0 50 -9 9z"/>
<path d="M3432 4176 c-12 -39 -22 -78 -22 -86 1 -8 12 19 25 60 14 41 24 80
22 86 -1 7 -12 -20 -25 -60z"/>
<path d="M654 6553 c-9 -32 -32 -102 -50 -157 -19 -54 -34 -107 -34 -117 0
-10 -11 -51 -24 -91 -14 -40 -28 -89 -31 -108 -3 -19 -8 -44 -11 -55 -4 -17
-3 -17 5 -4 6 9 24 31 41 49 31 34 35 46 31 120 -2 51 65 268 91 294 24 24 33
92 14 111 -13 14 -17 9 -32 -42z"/>
<path d="M2942 6343 c-6 -15 -13 -44 -16 -63 -4 -24 1 -16 15 24 20 58 21 91
1 39z"/>
<path d="M2911 6224 c0 -11 3 -14 6 -6 3 7 2 16 -1 19 -3 4 -6 -2 -5 -13z"/>
<path d="M1170 6008 c0 -4 4 -8 9 -8 6 0 12 4 15 8 3 5 -1 9 -9 9 -8 0 -15 -4
-15 -9z"/>
<path d="M2031 5654 c0 -11 3 -14 6 -6 3 7 2 16 -1 19 -3 4 -6 -2 -5 -13z"/>
<path d="M2016 5615 c-3 -9 -6 -22 -5 -28 0 -7 5 -1 10 12 5 13 8 26 5 28 -2
2 -6 -3 -10 -12z"/>
<path d="M1995 5560 c-3 -5 -1 -10 4 -10 6 0 11 5 11 10 0 6 -2 10 -4 10 -3 0
-8 -4 -11 -10z"/>
<path d="M671 3874 c0 -11 3 -14 6 -6 3 7 2 16 -1 19 -3 4 -6 -2 -5 -13z"/>
<path d="M4115 2835 c-16 -7 -81 -33 -144 -57 -140 -53 -190 -92 -202 -158 -4
-25 -15 -76 -24 -115 -23 -97 -48 -246 -43 -251 8 -8 173 50 188 66 3 3 21 14
40 24 19 11 37 22 40 25 7 9 101 74 213 148 65 43 111 82 137 116 66 89 66
138 -2 187 -36 26 -49 30 -107 29 -36 0 -79 -6 -96 -14z"/>
</g>
</svg>
